<?xml version="1.0" encoding="utf-8"?>
<!-- Generator: Adobe Illustrator 12.0.0, SVG Export Plug-In . SVG Version: 6.00 Build 51448)  -->
<!DOCTYPE svg PUBLIC "-//W3C//DTD SVG 1.1//EN" "http://www.w3.org/Graphics/SVG/1.1/DTD/svg11.dtd" [
	<!ENTITY ns_svg "http://www.w3.org/2000/svg">
	<!ENTITY ns_xlink "http://www.w3.org/1999/xlink">
]>
<svg  version="1.1" id="Layer_1" xmlns="&ns_svg;" xmlns:xlink="&ns_xlink;" width="69.475" height="16" viewBox="0 0 69.475 16"
	 overflow="visible" enable-background="new 0 0 69.475 16" xml:space="preserve">
<g>
	<g>
		<path fill="#FFFFFF" d="M29.678,8.913c0,1.044-0.323,1.909-0.97,2.598c-0.646,0.688-1.485,1.031-2.517,1.031
			c-0.996,0-1.806-0.344-2.429-1.031c-0.623-0.688-0.935-1.554-0.935-2.598V7.395c0-1.04,0.312-1.905,0.935-2.597
			s1.433-1.038,2.429-1.038c1.031,0,1.87,0.345,2.517,1.035s0.97,1.556,0.97,2.6V8.913z M28.523,7.384
			c0-0.781-0.211-1.421-0.633-1.921s-0.988-0.75-1.699-0.75c-0.672,0-1.208,0.25-1.608,0.75s-0.601,1.14-0.601,1.921v1.529
			c0,0.788,0.2,1.433,0.601,1.933s0.937,0.75,1.608,0.75c0.715,0,1.282-0.249,1.702-0.747s0.63-1.144,0.63-1.936V7.384z"/>
		<path fill="#FFFFFF" d="M36.445,8.643h-3.891v3.773H31.4V3.885h5.643v0.906h-4.488v2.945h3.891V8.643z"/>
		<path fill="#FFFFFF" d="M43.436,8.643h-3.891v3.773h-1.154V3.885h5.643v0.906h-4.488v2.945h3.891V8.643z"/>
		<path fill="#FFFFFF" d="M46.535,11.51h4.037v0.906h-5.191V3.885h1.154V11.51z"/>
		<path fill="#FFFFFF" d="M53.08,12.417h-1.16V3.885h1.16V12.417z"/>
		<path fill="#FFFFFF" d="M61.705,12.417h-1.154l-4.107-6.598l-0.035,0.012v6.586h-1.154V3.885h1.154l4.107,6.586l0.035-0.012V3.885
			h1.154V12.417z"/>
		<path fill="#FFFFFF" d="M68.877,8.456h-3.908v3.055h4.506v0.906h-5.66V3.885h5.596v0.906h-4.441v2.758h3.908V8.456z"/>
	</g>
	<path fill="#FFFFFF" d="M8,9c-2.67,0-8,1.33-8,4v3h16v-3C16,10.331,10.67,9,8,9 M8,0C5.79,0,4,1.79,4,4s1.79,4,4,4s4-1.791,4-4
		S10.21,0,8,0 M8,10.901c2.971,0,6.1,1.459,6.1,2.1v1.1H1.9V13C1.9,12.36,5,10.901,8,10.901 M8,1.9c1.16,0,2.1,0.94,2.1,2.1
		S9.16,6.1,8,6.1S5.9,5.16,5.9,4S6.84,1.9,8,1.9z"/>
</g>
</svg>
