<?xml version="1.0" encoding="utf-8"?>
<!-- Generator: Adobe Illustrator 12.0.0, SVG Export Plug-In . SVG Version: 6.00 Build 51448)  -->
<!DOCTYPE svg PUBLIC "-//W3C//DTD SVG 1.1//EN" "http://www.w3.org/Graphics/SVG/1.1/DTD/svg11.dtd" [
	<!ENTITY ns_svg "http://www.w3.org/2000/svg">
	<!ENTITY ns_xlink "http://www.w3.org/1999/xlink">
]>
<svg  version="1.1" id="Layer_1" xmlns="&ns_svg;" xmlns:xlink="&ns_xlink;" width="24" height="24" viewBox="0 0 24 24"
	 overflow="visible" enable-background="new 0 0 24 24" xml:space="preserve">
<path fill="#FFFFFF" d="M16,13c-0.29,0-0.62,0-0.971,0.05C16.189,13.891,17,15,17,16.5V19h6v-2.5C23,14.17,18.33,13,16,13 M8,13
	c-2.33,0-7,1.17-7,3.5V19h14v-2.5C15,14.17,10.33,13,8,13 M8,11c1.66,0,3-1.34,3-3S9.66,5,8,5S5,6.34,5,8S6.34,11,8,11 M16,11
	c1.66,0,3-1.34,3-3s-1.34-3-3-3s-3,1.34-3,3S14.34,11,16,11z"/>
</svg>
