<?xml version="1.0" encoding="utf-8"?>
<!-- Generator: Adobe Illustrator 12.0.0, SVG Export Plug-In . SVG Version: 6.00 Build 51448)  -->
<!DOCTYPE svg PUBLIC "-//W3C//DTD SVG 1.1//EN" "http://www.w3.org/Graphics/SVG/1.1/DTD/svg11.dtd" [
	<!ENTITY ns_svg "http://www.w3.org/2000/svg">
	<!ENTITY ns_xlink "http://www.w3.org/1999/xlink">
]>
<svg  version="1.1" id="Layer_1" xmlns="&ns_svg;" xmlns:xlink="&ns_xlink;" width="24" height="24" viewBox="0 0 24 24"
	 overflow="visible" enable-background="new 0 0 24 24" xml:space="preserve">
<path fill="#FFFFFF" d="M15,14c2.67,0,8,1.33,8,4v2H7v-2C7,15.33,12.33,14,15,14 M15,12c-2.21,0-4-1.79-4-4s1.79-4,4-4s4,1.79,4,4
	S17.21,12,15,12 M5,9.59l2.12-2.13l1.42,1.42L6.41,11l2.13,2.12l-1.42,1.42L5,12.41l-2.12,2.13l-1.42-1.42L3.59,11L1.46,8.88
	l1.42-1.42L5,9.59z"/>
</svg>
