<?xml version="1.0" encoding="utf-8"?>
<!-- Generator: Adobe Illustrator 12.0.0, SVG Export Plug-In . SVG Version: 6.00 Build 51448)  -->
<!DOCTYPE svg PUBLIC "-//W3C//DTD SVG 1.1//EN" "http://www.w3.org/Graphics/SVG/1.1/DTD/svg11.dtd" [
	<!ENTITY ns_svg "http://www.w3.org/2000/svg">
	<!ENTITY ns_xlink "http://www.w3.org/1999/xlink">
]>
<svg  version="1.1" id="Layer_1" xmlns="&ns_svg;" xmlns:xlink="&ns_xlink;" width="64.055" height="16" viewBox="0 0 64.055 16"
	 overflow="visible" enable-background="new 0 0 64.055 16" xml:space="preserve">
<g>
	<path fill="#FFFFFF" d="M8,0c2.21,0,4,1.79,4,4s-1.79,4-4,4S4,6.21,4,4S5.79,0,8,0 M8,10c4.42,0,8,1.79,8,4v2H0v-2
		C0,11.79,3.58,10,8,10z"/>
	<g>
		<path fill="#FFFFFF" d="M29.678,8.996c0,1.044-0.323,1.909-0.97,2.598c-0.646,0.688-1.485,1.031-2.517,1.031
			c-0.996,0-1.806-0.344-2.429-1.031c-0.623-0.688-0.935-1.554-0.935-2.598V7.478c0-1.04,0.312-1.905,0.935-2.597
			s1.433-1.038,2.429-1.038c1.031,0,1.87,0.345,2.517,1.035s0.97,1.556,0.97,2.6V8.996z M28.523,7.468
			c0-0.781-0.211-1.421-0.633-1.921s-0.988-0.75-1.699-0.75c-0.672,0-1.208,0.25-1.608,0.75s-0.601,1.14-0.601,1.921v1.529
			c0,0.788,0.2,1.433,0.601,1.933s0.937,0.75,1.608,0.75c0.715,0,1.282-0.249,1.702-0.747s0.63-1.144,0.63-1.936V7.468z"/>
		<path fill="#FFFFFF" d="M37.852,12.5h-1.154L32.59,5.902l-0.035,0.012V12.5H31.4V3.969h1.154l4.107,6.586l0.035-0.012V3.969h1.154
			V12.5z"/>
		<path fill="#FFFFFF" d="M41.115,11.594h4.037V12.5h-5.191V3.969h1.154V11.594z"/>
		<path fill="#FFFFFF" d="M47.66,12.5H46.5V3.969h1.16V12.5z"/>
		<path fill="#FFFFFF" d="M56.285,12.5h-1.154l-4.107-6.598l-0.035,0.012V12.5h-1.154V3.969h1.154l4.107,6.586l0.035-0.012V3.969
			h1.154V12.5z"/>
		<path fill="#FFFFFF" d="M63.457,8.539h-3.908v3.055h4.506V12.5h-5.66V3.969h5.596v0.906h-4.441v2.758h3.908V8.539z"/>
	</g>
</g>
</svg>
