<?xml version="1.0" encoding="utf-8"?>
<!-- Generator: Adobe Illustrator 12.0.0, SVG Export Plug-In . SVG Version: 6.00 Build 51448)  -->
<!DOCTYPE svg PUBLIC "-//W3C//DTD SVG 1.1//EN" "http://www.w3.org/Graphics/SVG/1.1/DTD/svg11.dtd" [
	<!ENTITY ns_svg "http://www.w3.org/2000/svg">
	<!ENTITY ns_xlink "http://www.w3.org/1999/xlink">
]>
<svg  version="1.1" id="Layer_1" xmlns="&ns_svg;" xmlns:xlink="&ns_xlink;" width="24" height="24" viewBox="0 0 24 24"
	 overflow="visible" enable-background="new 0 0 24 24" xml:space="preserve">
<path fill="#FFFFFF" d="M15,14c2.67,0,8,1.34,8,4v2H7v-2C7,15.34,12.33,14,15,14 M15,12c-2.21,0-4-1.79-4-4s1.79-4,4-4s4,1.79,4,4
	S17.21,12,15,12 M2.76,14.66c-0.39,0.39-1.03,0.39-1.42,0c-0.39-0.391-0.39-1.03,0-1.42l1.95-1.95C3.1,10.9,3,10.46,3,10
	c0-1.66,1.34-3,3-3s3,1.34,3,3s-1.34,3-3,3c-0.46,0-0.9-0.1-1.29-0.29L2.76,14.66 M6,9c-0.55,0-1,0.45-1,1s0.45,1,1,1s1-0.45,1-1
	S6.55,9,6,9z"/>
</svg>
