<?xml version="1.0" encoding="utf-8"?>
<!-- Generator: Adobe Illustrator 12.0.0, SVG Export Plug-In . SVG Version: 6.00 Build 51448)  -->
<!DOCTYPE svg PUBLIC "-//W3C//DTD SVG 1.1//EN" "http://www.w3.org/Graphics/SVG/1.1/DTD/svg11.dtd" [
	<!ENTITY ns_svg "http://www.w3.org/2000/svg">
	<!ENTITY ns_xlink "http://www.w3.org/1999/xlink">
]>
<svg  version="1.1" id="Layer_1" xmlns="&ns_svg;" xmlns:xlink="&ns_xlink;" width="24" height="24" viewBox="0 0 24 24"
	 overflow="visible" enable-background="new 0 0 24 24" xml:space="preserve">
<path fill="#FFFFFF" d="M9,22c-0.55,0-1-0.45-1-1v-3H4c-1.1,0-2-0.9-2-2V4c0-1.11,0.9-2,2-2h16c1.1,0,2,0.9,2,2v12c0,1.1-0.9,2-2,2
	h-6.1l-3.7,3.71C10,21.9,9.75,22,9.5,22l0,0H9 M17,11V9h-2v2H17 M13,11V9h-2v2H13 M9,11V9H7v2H9z"/>
</svg>
