<?xml version="1.0" encoding="utf-8"?>
<!-- Generator: Adobe Illustrator 12.0.0, SVG Export Plug-In  -->
<!DOCTYPE svg PUBLIC "-//W3C//DTD SVG 1.1//EN" "http://www.w3.org/Graphics/SVG/1.1/DTD/svg11.dtd" [
	<!ENTITY ns_flows "http://ns.adobe.com/Flows/1.0/">
	<!ENTITY ns_svg "http://www.w3.org/2000/svg">
	<!ENTITY ns_xlink "http://www.w3.org/1999/xlink">
]>
<svg  version="1.1" xmlns="&ns_svg;" xmlns:xlink="&ns_xlink;" xmlns:a="http://ns.adobe.com/AdobeSVGViewerExtensions/3.0/"
	 width="403" height="9" viewBox="-0.896 -0.454 403 9" enable-background="new -0.896 -0.454 403 9" xml:space="preserve">
<defs>
</defs>
<path fill="#FF3D7F" d="M3.669,5.791c0.484,2.145-1.155,2.222-1.155,2.222c-1.727,0.176-2.222-1.54-2.222-1.54
	C-0.39,4.185,0.336,2.139,0.336,2.139c0.792-2.288,3.333-2.023,3.333-2.023c3.278,0.109,3.333,2.838,3.333,2.838
	C7.112,6.176,3.669,5.791,3.669,5.791z M3.207,3.195c0.022,0.308,0.198,0.406,0.44,0.406c0.242,0,0.429-0.153,0.429-0.406
	c0-0.231-0.154-0.462-0.429-0.462C3.394,2.733,3.185,2.964,3.207,3.195z"/>
<path fill="#FF3D7F" d="M14.878,4.823c2.134,1.814,0.517,3.024,0.517,3.024c-1.65,1.32-2.904-1.595-2.959-1.737
	c0.286,1.892-1.221,2.023-1.221,2.023c-1.474,0.188-1.859-1.32-1.859-1.32C8.619,4.262,9.279,2.414,9.279,2.414
	c0.627-2.409,3.157-2.167,3.157-2.167c2.585,0.011,2.981,2.09,2.981,2.09C15.703,3.91,14.878,4.823,14.878,4.823z M11.996,3.558
	c0.022,0.309,0.198,0.407,0.44,0.407c0.242,0,0.429-0.154,0.429-0.407c0-0.23-0.154-0.462-0.429-0.462
	C12.183,3.096,11.974,3.327,11.996,3.558z"/>
<path fill="#FF3D7F" d="M25.085,4.031c0,4.136-3.52,4.136-3.52,4.136c-3.96,0-3.96-3.718-3.96-3.718c0-4.555,3.96-4.147,3.96-4.147
	C25.085,0.302,25.085,4.031,25.085,4.031z M20.96,4.295c0.022,0.308,0.198,0.407,0.44,0.407c0.242,0,0.429-0.154,0.429-0.407
	c0-0.231-0.154-0.462-0.429-0.462C21.147,3.833,20.938,4.063,20.96,4.295z"/>
<path fill="#FF3D7F" d="M28.848,8.046c-1.617,0-1.837-2.013-1.837-2.013c-0.363-1.947,0-4.202,0-4.202
	c0.385-2.112,3.531-1.815,3.531-1.815c2.838,0.154,2.717,1.452,2.717,1.452c0.077,1.606-2.574,1.43-2.574,1.43
	c1.463,0.21,1.375,1.067,1.375,1.067c0,1.221-1.595,1.254-1.595,1.254C31.103,8.431,28.848,8.046,28.848,8.046z"/>
<path fill="#FF3D7F" d="M34.897,2.744c0,0,0.077-2.442,1.98-2.453c0,0,1.551,0,1.815,2.145c0.242,2.046,0,3.807,0,3.807
	s-0.165,1.914-1.815,1.902c-1.815-0.021-1.936-2.332-1.936-2.332C34.766,4.614,34.897,2.744,34.897,2.744z"/>
<path fill="#FF3D7F" d="M47.096,5.78c0.088,0.396,0,2.299-2.959,2.387C41.409,8.244,40.871,6,40.871,6
	c-0.528-1.507-0.11-3.96-0.11-3.96c0.33-1.881,1.727-1.793,1.727-1.793c2.475-0.077,1.65,4.675,1.65,4.675
	C46.7,3.558,47.096,5.78,47.096,5.78z"/>
<path fill="#FF3D7F" d="M55.347,1.622c0.033,1.749-2.915,1.463-2.915,1.463c1.683,0.275,1.507,1.166,1.507,1.166
	c0,0.847-1.023,1.111-1.166,1.144c2.739-0.021,2.596,1.397,2.596,1.397c-0.077,1.386-2.915,1.342-2.915,1.342
	c-3.201,0.077-3.399-1.595-3.399-1.595c-0.374-1.925,0.022-4.532,0.022-4.532c0.352-2.035,3.19-1.782,3.19-1.782
	C55.556,0.313,55.347,1.622,55.347,1.622z"/>
<path fill="#FF3D7F" d="M66.952,4.031c0,0-0.099,0.957,1.298,0.803c0,0,1.727-0.297,1.914,1.199c0,0,0.154,1.144-0.869,1.705
	c0,0-1.32,0.803-3.872,0.099c0,0-2.442-0.616-2.365-3.795c0,0-0.143-3.047,2.893-3.74c0,0,1.947-0.506,3.465,0.396
	c0,0,1.089,0.671,0.517,2.023c0,0-0.341,0.892-1.716,0.639C68.216,3.36,67.006,3.107,66.952,4.031z"/>
<path fill="#FF3D7F" d="M77.995,5.417c0,2.662-2.86,2.695-2.86,2.695c-3.3,0.241-3.256-1.584-3.256-1.584
	c-0.022-1.914,2.486-1.508,2.486-1.508c-2.541-0.583-2.178-2.684-2.178-2.684c0.308-2.2,2.486-2.057,2.486-2.057
	c2.739-0.121,3.014,0.924,2.948,1.562c-0.154,1.452-2.761,1.145-2.761,1.145C78.138,3.415,77.995,5.417,77.995,5.417z"/>
<path fill="#FF3D7F" d="M85.97,5.417c0,2.662-2.86,2.695-2.86,2.695c-3.3,0.241-3.256-1.584-3.256-1.584
	c-0.022-1.914,2.486-1.508,2.486-1.508c-2.541-0.583-2.178-2.684-2.178-2.684c0.308-2.2,2.486-2.057,2.486-2.057
	c2.739-0.121,3.014,0.924,2.948,1.562c-0.154,1.452-2.761,1.145-2.761,1.145C86.113,3.415,85.97,5.417,85.97,5.417z"/>
<path fill="#FF3D7F" d="M99.831,1.699c0.44,1.595-0.924,2.199-0.924,2.199c1.342,0.407,1.342,1.629,1.342,1.629
	c0.143,2.42-2.904,2.519-2.904,2.519c-2.475,0.143-3.157-1.287-3.157-1.287c-0.44-0.748-0.528-1.672-0.528-2.42
	c0-1.518,0.44-2.486,0.44-2.486c0.781-2.002,3.256-1.66,3.256-1.66C99.435,0.269,99.831,1.699,99.831,1.699z M96.53,2.81
	c0,0.231,0.11,0.474,0.44,0.474c0.286,0,0.44-0.242,0.44-0.474c0-0.22-0.154-0.418-0.44-0.418C96.729,2.392,96.53,2.568,96.53,2.81z
	 M96.629,5.494c0.022,0.308,0.198,0.407,0.44,0.407c0.242,0,0.429-0.154,0.429-0.407c0-0.231-0.154-0.462-0.429-0.462
	C96.816,5.032,96.607,5.263,96.629,5.494z"/>
<path fill="#FF3D7F" d="M108.135,0.082c1.87,0.22,1.441,2.013,1.441,2.013c-0.374,1.606-2.002,2.354-2.002,2.354
	c0.572,1.837-0.264,2.98-0.264,2.98c-0.341,0.474-0.748,0.649-1.32,0.649c-0.935,0-1.364-0.506-1.364-0.506
	c-0.935-1.045-0.462-3.047-0.462-3.047s-1.991-0.804-2.211-2.453c-0.253-1.937,1.507-2.068,1.507-2.068
	c1.958-0.121,2.53,2.024,2.53,2.024C106.606-0.215,108.135,0.082,108.135,0.082z"/>
<path fill="#FF3D7F" d="M122.16,2.513c0.033-0.308,0.33-2.364,2.068-2.364c1.43,0,2.134,1.683,2.134,1.683
	c0.792,1.814,0.792,3.894,0.792,3.894c0.099,2.476-1.65,2.388-1.65,2.388c-2.288,0-2.222-3.498-2.222-3.498
	c-0.132,1.716-1.067,1.584-1.067,1.584c-1.144,0-1.21-1.606-1.21-1.606c0,3.575-1.892,3.521-1.892,3.521
	c-2.189,0-2.035-2.321-2.035-2.321c0-2.387,0.825-4.048,0.825-4.048c0.77-1.76,2.277-1.573,2.277-1.573
	C122.116,0.17,122.16,2.326,122.16,2.513z"/>
<path fill="#FF3D7F" d="M133.886,7.826c-0.847-0.506-1.056-1.441-1.078-1.661c-0.033,0.22-0.231,1.155-1.078,1.661
	c-0.748,0.439-1.661,0.121-1.661,0.121c-1.155-0.407-0.99-2.079-0.99-2.079c0.077-2.09,0.847-3.477,1.496-4.4
	c0.957-1.396,2.156-1.364,2.233-1.364s1.276-0.032,2.244,1.364c0.638,0.924,1.408,2.311,1.485,4.4c0,0,0.176,1.672-0.99,2.079
	C135.547,7.947,134.634,8.266,133.886,7.826z M132.412,4.449c0.022,0.308,0.198,0.406,0.44,0.406s0.429-0.153,0.429-0.406
	c0-0.231-0.154-0.462-0.429-0.462C132.599,3.987,132.39,4.218,132.412,4.449z"/>
<path fill="#FF3D7F" d="M138.396,2.744c0,0,0.077-2.442,1.98-2.453c0,0,1.551,0,1.815,2.145c0.242,2.046,0,3.807,0,3.807
	s-0.165,1.914-1.815,1.902c-1.815-0.021-1.936-2.332-1.936-2.332C138.264,4.614,138.396,2.744,138.396,2.744z"/>
<path fill="#FF3D7F" d="M147.933,4.031c0,0-0.099,0.957,1.298,0.803c0,0,1.727-0.297,1.914,1.199c0,0,0.154,1.144-0.869,1.705
	c0,0-1.32,0.803-3.872,0.099c0,0-2.442-0.616-2.365-3.795c0,0-0.143-3.047,2.893-3.74c0,0,1.947-0.506,3.465,0.396
	c0,0,1.089,0.671,0.517,2.023c0,0-0.341,0.892-1.716,0.639C149.198,3.36,147.988,3.107,147.933,4.031z"/>
<path fill="#FF3D7F" d="M156.919,2.667c0,0-0.066-2.519,1.837-2.519c0,0,1.496,0.011,1.749,2.178c0.242,2.067,0,3.839,0,3.839
	s-0.154,1.936-1.749,1.925c-1.749-0.021-1.793-2.508-1.793-2.508h-0.407c0,0-0.132,2.475-1.859,2.486c0,0-1.584,0.088-1.771-2.079
	c-0.209-2.53,0.077-3.982,0.077-3.982s0.242-1.848,1.672-1.848c1.914,0,1.826,2.508,1.826,2.508H156.919z"/>
<path fill="#FF3D7F" d="M167.183,7.826c-0.847-0.506-1.056-1.441-1.078-1.661c-0.033,0.22-0.231,1.155-1.078,1.661
	c-0.748,0.439-1.661,0.121-1.661,0.121c-1.155-0.407-0.99-2.079-0.99-2.079c0.077-2.09,0.847-3.477,1.496-4.4
	c0.957-1.396,2.156-1.364,2.233-1.364s1.276-0.032,2.244,1.364c0.638,0.924,1.408,2.311,1.485,4.4c0,0,0.176,1.672-0.99,2.079
	C168.843,7.947,167.931,8.266,167.183,7.826z M165.708,4.449c0.022,0.308,0.198,0.406,0.44,0.406s0.429-0.153,0.429-0.406
	c0-0.231-0.154-0.462-0.429-0.462C165.896,3.987,165.687,4.218,165.708,4.449z"/>
<path fill="#FF3D7F" d="M182.528,2.513c0.033-0.308,0.33-2.364,2.068-2.364c1.43,0,2.134,1.683,2.134,1.683
	c0.792,1.814,0.792,3.894,0.792,3.894c0.099,2.476-1.65,2.388-1.65,2.388c-2.288,0-2.222-3.498-2.222-3.498
	c-0.132,1.716-1.067,1.584-1.067,1.584c-1.144,0-1.21-1.606-1.21-1.606c0,3.575-1.892,3.521-1.892,3.521
	c-2.189,0-2.035-2.321-2.035-2.321c0-2.387,0.825-4.048,0.825-4.048c0.77-1.76,2.277-1.573,2.277-1.573
	C182.484,0.17,182.528,2.326,182.528,2.513z"/>
<path fill="#FF3D7F" d="M189.457,2.744c0,0,0.077-2.442,1.98-2.453c0,0,1.551,0,1.815,2.145c0.242,2.046,0,3.807,0,3.807
	s-0.165,1.914-1.815,1.902c-1.815-0.021-1.936-2.332-1.936-2.332C189.325,4.614,189.457,2.744,189.457,2.744z"/>
<path fill="#FF3D7F" d="M201.656,5.78c0.088,0.396,0,2.299-2.959,2.387C195.969,8.244,195.431,6,195.431,6
	c-0.528-1.507-0.11-3.96-0.11-3.96c0.33-1.881,1.727-1.793,1.727-1.793c2.475-0.077,1.65,4.675,1.65,4.675
	C201.26,3.558,201.656,5.78,201.656,5.78z"/>
<path fill="#FF3D7F" d="M207.244,2.007c0.055-0.187,0.231-0.671,0.715-1.089c1.089-0.935,2.013,0,2.013,0
	c1.375,1.386-0.781,3.025-0.781,3.025c2.75,2.98,0.968,3.894,0.968,3.894c-1.958,1.177-3.135-1.43-3.201-1.584
	c0.011,0.088,0.198,1.551-1.254,1.826c-1.639,0.318-2.013-1.661-2.013-1.661s-0.429-1.749-0.077-3.993
	c0.352-2.266,1.782-2.222,1.782-2.222C207.387,0.148,207.299,1.633,207.244,2.007z"/>
<path fill="#FF3D7F" d="M220.29,8.046c-1.616,0-1.837-2.013-1.837-2.013c-0.363-1.947,0-4.202,0-4.202
	c0.385-2.112,3.531-1.815,3.531-1.815c2.838,0.154,2.717,1.452,2.717,1.452c0.077,1.606-2.574,1.43-2.574,1.43
	c1.463,0.21,1.375,1.067,1.375,1.067c0,1.221-1.595,1.254-1.595,1.254C222.545,8.431,220.29,8.046,220.29,8.046z"/>
<path fill="#FF3D7F" d="M233.578,4.031c0,4.136-3.52,4.136-3.52,4.136c-3.961,0-3.961-3.718-3.961-3.718
	c0-4.555,3.961-4.147,3.961-4.147C233.578,0.302,233.578,4.031,233.578,4.031z M229.453,4.295c0.021,0.308,0.198,0.407,0.44,0.407
	c0.241,0,0.429-0.154,0.429-0.407c0-0.231-0.154-0.462-0.429-0.462C229.641,3.833,229.432,4.063,229.453,4.295z"/>
<path fill="#FF3D7F" d="M241.355,4.823c2.133,1.814,0.517,3.024,0.517,3.024c-1.649,1.32-2.904-1.595-2.959-1.737
	c0.286,1.892-1.222,2.023-1.222,2.023c-1.474,0.188-1.858-1.32-1.858-1.32c-0.737-2.552-0.077-4.399-0.077-4.399
	c0.627-2.409,3.157-2.167,3.157-2.167c2.585,0.011,2.981,2.09,2.981,2.09C242.18,3.91,241.355,4.823,241.355,4.823z M238.473,3.558
	c0.022,0.309,0.198,0.407,0.44,0.407c0.241,0,0.429-0.154,0.429-0.407c0-0.23-0.154-0.462-0.429-0.462
	C238.66,3.096,238.451,3.327,238.473,3.558z"/>
<path fill="#FF3D7F" d="M256.392,5.78c0.089,0.396,0,2.299-2.959,2.387C250.705,8.244,250.166,6,250.166,6
	c-0.528-1.507-0.11-3.96-0.11-3.96c0.33-1.881,1.728-1.793,1.728-1.793c2.475-0.077,1.649,4.675,1.649,4.675
	C255.996,3.558,256.392,5.78,256.392,5.78z"/>
<path fill="#FF3D7F" d="M258.174,2.744c0,0,0.077-2.442,1.98-2.453c0,0,1.551,0,1.814,2.145c0.242,2.046,0,3.807,0,3.807
	s-0.164,1.914-1.814,1.902c-1.815-0.021-1.936-2.332-1.936-2.332C258.042,4.614,258.174,2.744,258.174,2.744z"/>
<path fill="#FF3D7F" d="M263.729,2.029c0-1.463,1.452-1.628,1.452-1.628c2.332-0.484,4.708-0.033,4.708-0.033
	c1.342,0.286,1.276,1.419,1.276,1.419c-0.066,1.87-2.058,1.605-2.058,1.605c0.374,2.223,0,3.477,0,3.477
	c-0.286,1.375-1.496,1.287-1.496,1.287s-1.342,0.143-1.649-1.287c-0.319-1.485,0-3.389,0-3.389S263.729,3.723,263.729,2.029z"/>
<path fill="#FF3D7F" d="M272.716,2.029c0-1.463,1.452-1.628,1.452-1.628c2.332-0.484,4.708-0.033,4.708-0.033
	c1.342,0.286,1.276,1.419,1.276,1.419c-0.066,1.87-2.058,1.605-2.058,1.605c0.374,2.223,0,3.477,0,3.477
	c-0.286,1.375-1.496,1.287-1.496,1.287s-1.342,0.143-1.649-1.287c-0.319-1.485,0-3.389,0-3.389S272.716,3.723,272.716,2.029z"/>
<path fill="#FF3D7F" d="M288.347,5.78c0.088,0.396,0,2.299-2.959,2.387C282.659,8.244,282.12,6,282.12,6
	c-0.527-1.507-0.109-3.96-0.109-3.96c0.33-1.881,1.727-1.793,1.727-1.793c2.475-0.077,1.65,4.675,1.65,4.675
	C287.95,3.558,288.347,5.78,288.347,5.78z"/>
<path fill="#FF3D7F" d="M296.596,1.622c0.033,1.749-2.915,1.463-2.915,1.463c1.684,0.275,1.508,1.166,1.508,1.166
	c0,0.847-1.023,1.111-1.166,1.144c2.738-0.021,2.596,1.397,2.596,1.397c-0.077,1.386-2.915,1.342-2.915,1.342
	c-3.201,0.077-3.399-1.595-3.399-1.595c-0.374-1.925,0.022-4.532,0.022-4.532c0.352-2.035,3.19-1.782,3.19-1.782
	C296.805,0.313,296.596,1.622,296.596,1.622z"/>
<path fill="#FF3D7F" d="M310.5,5.417c0,2.662-2.86,2.695-2.86,2.695c-3.3,0.241-3.256-1.584-3.256-1.584
	c-0.021-1.914,2.486-1.508,2.486-1.508c-2.541-0.583-2.178-2.684-2.178-2.684c0.308-2.2,2.485-2.057,2.485-2.057
	c2.739-0.121,3.015,0.924,2.948,1.562c-0.154,1.452-2.761,1.145-2.761,1.145C310.643,3.415,310.5,5.417,310.5,5.417z"/>
<path fill="#FF3D7F" d="M316.419,2.667c0,0-0.066-2.519,1.837-2.519c0,0,1.496,0.011,1.749,2.178c0.241,2.067,0,3.839,0,3.839
	s-0.154,1.936-1.749,1.925c-1.749-0.021-1.793-2.508-1.793-2.508h-0.407c0,0-0.132,2.475-1.859,2.486c0,0-1.584,0.088-1.771-2.079
	c-0.209-2.53,0.077-3.982,0.077-3.982s0.241-1.848,1.672-1.848c1.914,0,1.826,2.508,1.826,2.508H316.419z"/>
<path fill="#FF3D7F" d="M327.935,0.082c1.87,0.22,1.441,2.013,1.441,2.013c-0.374,1.606-2.002,2.354-2.002,2.354
	c0.572,1.837-0.264,2.98-0.264,2.98c-0.342,0.474-0.748,0.649-1.32,0.649c-0.936,0-1.364-0.506-1.364-0.506
	c-0.935-1.045-0.462-3.047-0.462-3.047s-1.991-0.804-2.211-2.453c-0.253-1.937,1.507-2.068,1.507-2.068
	c1.958-0.121,2.53,2.024,2.53,2.024C326.406-0.215,327.935,0.082,327.935,0.082z"/>
<path fill="#FF3D7F" d="M340.838,5.791c0.484,2.145-1.155,2.222-1.155,2.222c-1.727,0.176-2.222-1.54-2.222-1.54
	c-0.682-2.288,0.044-4.334,0.044-4.334c0.792-2.288,3.333-2.023,3.333-2.023c3.278,0.109,3.333,2.838,3.333,2.838
	C344.281,6.176,340.838,5.791,340.838,5.791z M340.376,3.195c0.021,0.308,0.198,0.406,0.439,0.406c0.242,0,0.43-0.153,0.43-0.406
	c0-0.231-0.154-0.462-0.43-0.462C340.563,2.733,340.354,2.964,340.376,3.195z"/>
<path fill="#FF3D7F" d="M352.047,4.823c2.134,1.814,0.517,3.024,0.517,3.024c-1.649,1.32-2.903-1.595-2.959-1.737
	c0.286,1.892-1.221,2.023-1.221,2.023c-1.474,0.188-1.859-1.32-1.859-1.32c-0.736-2.552-0.076-4.399-0.076-4.399
	c0.627-2.409,3.156-2.167,3.156-2.167c2.585,0.011,2.981,2.09,2.981,2.09C352.872,3.91,352.047,4.823,352.047,4.823z M349.165,3.558
	c0.021,0.309,0.198,0.407,0.439,0.407c0.242,0,0.43-0.154,0.43-0.407c0-0.23-0.154-0.462-0.43-0.462
	C349.352,3.096,349.143,3.327,349.165,3.558z"/>
<path fill="#FF3D7F" d="M354.797,2.744c0,0,0.077-2.442,1.98-2.453c0,0,1.551,0,1.814,2.145c0.242,2.046,0,3.807,0,3.807
	s-0.165,1.914-1.814,1.902c-1.815-0.021-1.937-2.332-1.937-2.332C354.665,4.614,354.797,2.744,354.797,2.744z"/>
<path fill="#FF3D7F" d="M362.783,0.192c2.266-0.1,2.464,2.475,2.485,2.859c-0.011-2.959,1.749-2.783,1.749-2.783
	c1.386-0.044,1.573,1.254,1.573,1.254c0.484,2.541-0.088,4.896-0.088,4.896c-0.396,1.87-1.76,1.65-1.76,1.65
	c-2.267,0.044-2.685-2.904-2.718-3.245c0.177,3.574-1.771,3.245-1.771,3.245c-1.254,0.032-1.518-1.222-1.518-1.222
	c-0.551-2.31,0-4.873,0-4.873S361.056,0.269,362.783,0.192z"/>
<path fill="#FF3D7F" d="M374.487,4.031c0,0-0.1,0.957,1.298,0.803c0,0,1.727-0.297,1.914,1.199c0,0,0.154,1.144-0.869,1.705
	c0,0-1.32,0.803-3.872,0.099c0,0-2.441-0.616-2.365-3.795c0,0-0.143-3.047,2.894-3.74c0,0,1.946-0.506,3.465,0.396
	c0,0,1.089,0.671,0.517,2.023c0,0-0.341,0.892-1.716,0.639C375.752,3.36,374.542,3.107,374.487,4.031z"/>
<path fill="#FF3D7F" d="M385.883,1.622c0.033,1.749-2.915,1.463-2.915,1.463c1.684,0.275,1.508,1.166,1.508,1.166
	c0,0.847-1.023,1.111-1.166,1.144c2.738-0.021,2.596,1.397,2.596,1.397c-0.077,1.386-2.915,1.342-2.915,1.342
	c-3.201,0.077-3.399-1.595-3.399-1.595c-0.374-1.925,0.022-4.532,0.022-4.532c0.352-2.035,3.19-1.782,3.19-1.782
	C386.092,0.313,385.883,1.622,385.883,1.622z"/>
<path fill="#FF3D7F" d="M393.979,5.417c0,2.662-2.86,2.695-2.86,2.695c-3.3,0.241-3.256-1.584-3.256-1.584
	c-0.021-1.914,2.486-1.508,2.486-1.508c-2.541-0.583-2.178-2.684-2.178-2.684c0.308-2.2,2.485-2.057,2.485-2.057
	c2.739-0.121,3.015,0.924,2.948,1.562c-0.154,1.452-2.761,1.145-2.761,1.145C394.121,3.415,393.979,5.417,393.979,5.417z"/>
<path fill="#FF3D7F" d="M401.954,5.417c0,2.662-2.86,2.695-2.86,2.695c-3.3,0.241-3.256-1.584-3.256-1.584
	c-0.021-1.914,2.486-1.508,2.486-1.508c-2.541-0.583-2.178-2.684-2.178-2.684c0.308-2.2,2.485-2.057,2.485-2.057
	c2.739-0.121,3.015,0.924,2.948,1.562c-0.154,1.452-2.761,1.145-2.761,1.145C402.097,3.415,401.954,5.417,401.954,5.417z"/>
</svg>
