<?xml version="1.0" encoding="utf-8"?>
<!-- Generator: Adobe Illustrator 12.0.0, SVG Export Plug-In . SVG Version: 6.00 Build 51448)  -->
<!DOCTYPE svg PUBLIC "-//W3C//DTD SVG 1.1//EN" "http://www.w3.org/Graphics/SVG/1.1/DTD/svg11.dtd" [
	<!ENTITY ns_svg "http://www.w3.org/2000/svg">
	<!ENTITY ns_xlink "http://www.w3.org/1999/xlink">
]>
<svg  version="1.1" id="Layer_1" xmlns="&ns_svg;" xmlns:xlink="&ns_xlink;" width="24" height="24" viewBox="0 0 24 24"
	 overflow="visible" enable-background="new 0 0 24 24" xml:space="preserve">
<path fill="#FFFFFF" d="M22,12v8c0,1.1-0.9,2-2,2H4c-1.1,0-2-0.9-2-2v-8c-0.55,0-1-0.45-1-1V8c0-1.1,0.9-2,2-2h3.17
	C6.06,5.69,6,5.35,6,5c0-1.66,1.34-3,3-3c1,0,1.88,0.5,2.43,1.24V3.23L12,4l0.57-0.77v0.01C13.12,2.5,14,2,15,2c1.66,0,3,1.34,3,3
	c0,0.35-0.061,0.69-0.17,1H21c1.1,0,2,0.9,2,2v3C23,11.55,22.55,12,22,12 M4,20h7v-8H4V20 M20,20v-8h-7v8H20 M9,4C8.45,4,8,4.45,8,5
	s0.45,1,1,1s1-0.45,1-1S9.55,4,9,4 M15,4c-0.55,0-1,0.45-1,1s0.45,1,1,1s1-0.45,1-1S15.55,4,15,4 M3,8v2h8V8H3 M13,8v2h8V8H13z"/>
</svg>
