<?xml version="1.0" encoding="utf-8"?>
<!-- Generator: Adobe Illustrator 12.0.0, SVG Export Plug-In . SVG Version: 6.00 Build 51448)  -->
<!DOCTYPE svg PUBLIC "-//W3C//DTD SVG 1.1//EN" "http://www.w3.org/Graphics/SVG/1.1/DTD/svg11.dtd" [
	<!ENTITY ns_svg "http://www.w3.org/2000/svg">
	<!ENTITY ns_xlink "http://www.w3.org/1999/xlink">
]>
<svg  version="1.1" id="Layer_1" xmlns="&ns_svg;" xmlns:xlink="&ns_xlink;" width="24" height="24" viewBox="0 0 24 24"
	 overflow="visible" enable-background="new 0 0 24 24" xml:space="preserve">
<path fill="#14C3A2" d="M4.8,22L4.8,22C3.3,22,2,20.7,2,19.2l0,0c0-1.5,1.3-2.8,2.8-2.8l0,0c1.5,0,2.8,1.3,2.8,2.8l0,0
	C7.6,20.7,6.4,22,4.8,22 M2,2v3c9.4,0,17,7.6,17,17h3C22,10.95,13.05,2,2,2 M2,8.1v3c6,0,10.9,4.9,10.9,10.9h3
	C15.9,14.3,9.7,8.1,2,8.1z"/>
</svg>
