<?xml version="1.0" encoding="utf-8"?>
<!-- Generator: Adobe Illustrator 12.0.0, SVG Export Plug-In . SVG Version: 6.00 Build 51448)  -->
<!DOCTYPE svg PUBLIC "-//W3C//DTD SVG 1.1//EN" "http://www.w3.org/Graphics/SVG/1.1/DTD/svg11.dtd" [
	<!ENTITY ns_svg "http://www.w3.org/2000/svg">
	<!ENTITY ns_xlink "http://www.w3.org/1999/xlink">
]>
<svg  version="1.1" id="Layer_1" xmlns="&ns_svg;" xmlns:xlink="&ns_xlink;" width="24" height="24" viewBox="0 0 24 24"
	 overflow="visible" enable-background="new 0 0 24 24" xml:space="preserve">
<path fill="#FFFFFF" d="M12,18c-3.31,0-6-2.689-6-6c0-1,0.25-1.97,0.7-2.8L5.24,7.74C4.46,8.97,4,10.43,4,12c0,4.42,3.58,8,8,8v3
	l4-4l-4-4 M12,4V1L8,5l4,4V6c3.311,0,6,2.69,6,6c0,1-0.25,1.97-0.7,2.8l1.46,1.46C19.54,15.03,20,13.57,20,12C20,7.58,16.42,4,12,4z
	"/>
</svg>
